<mxfile host="app.diagrams.net" modified="2024-04-14T16:10:27.567Z" agent="Mozilla/5.0 (Windows NT 10.0; Win64; x64) AppleWebKit/537.36 (KHTML, like Gecko) Chrome/123.0.0.0 Safari/537.36" etag="SP2c1pb2Lf7Wcw3Vj78K" version="24.2.5" type="device">
  <diagram name="Page-1" id="yZJu6Gvj8OK3R1PE1cpo">
    <mxGraphModel dx="772" dy="1423" grid="1" gridSize="10" guides="1" tooltips="1" connect="1" arrows="1" fold="1" page="1" pageScale="1" pageWidth="850" pageHeight="1100" math="0" shadow="0">
      <root>
        <mxCell id="0" />
        <mxCell id="1" parent="0" />
        <mxCell id="v72m7F8DIpEoUBU4TtrB-1" value="" style="whiteSpace=wrap;html=1;aspect=fixed;" parent="1" vertex="1">
          <mxGeometry x="100" y="-130" width="805" height="805" as="geometry" />
        </mxCell>
        <mxCell id="wB27Ykt2AubsrCw0MbNM-19" style="rounded=0;orthogonalLoop=1;jettySize=auto;html=1;dashed=1;endArrow=none;endFill=0;" edge="1" parent="1" source="wB27Ykt2AubsrCw0MbNM-29" target="wB27Ykt2AubsrCw0MbNM-14">
          <mxGeometry relative="1" as="geometry" />
        </mxCell>
        <mxCell id="v72m7F8DIpEoUBU4TtrB-3" value="Cantact Guide" style="ellipse;whiteSpace=wrap;html=1;shadow=0;fillColor=#CDA2BE;" parent="1" vertex="1">
          <mxGeometry x="260" y="20" width="140" height="70" as="geometry" />
        </mxCell>
        <mxCell id="wB27Ykt2AubsrCw0MbNM-20" style="rounded=0;orthogonalLoop=1;jettySize=auto;html=1;dashed=1;endArrow=none;endFill=0;" edge="1" parent="1" source="wB27Ykt2AubsrCw0MbNM-31" target="wB27Ykt2AubsrCw0MbNM-14">
          <mxGeometry relative="1" as="geometry" />
        </mxCell>
        <mxCell id="v72m7F8DIpEoUBU4TtrB-4" value="Consulter Tour " style="ellipse;whiteSpace=wrap;html=1;fillColor=#CDA2BE;" parent="1" vertex="1">
          <mxGeometry x="260" y="100" width="140" height="70" as="geometry" />
        </mxCell>
        <mxCell id="wB27Ykt2AubsrCw0MbNM-21" style="rounded=0;orthogonalLoop=1;jettySize=auto;html=1;dashed=1;endArrow=none;endFill=0;" edge="1" parent="1" source="wB27Ykt2AubsrCw0MbNM-33" target="wB27Ykt2AubsrCw0MbNM-14">
          <mxGeometry relative="1" as="geometry" />
        </mxCell>
        <mxCell id="v72m7F8DIpEoUBU4TtrB-5" value="Consulte Guide Tour" style="ellipse;whiteSpace=wrap;html=1;fillColor=#CDA2BE;" parent="1" vertex="1">
          <mxGeometry x="260" y="180" width="140" height="70" as="geometry" />
        </mxCell>
        <mxCell id="wB27Ykt2AubsrCw0MbNM-22" style="rounded=0;orthogonalLoop=1;jettySize=auto;html=1;dashed=1;endArrow=none;endFill=0;" edge="1" parent="1" source="wB27Ykt2AubsrCw0MbNM-35" target="wB27Ykt2AubsrCw0MbNM-14">
          <mxGeometry relative="1" as="geometry" />
        </mxCell>
        <mxCell id="v72m7F8DIpEoUBU4TtrB-6" value="Booking" style="ellipse;whiteSpace=wrap;html=1;fillColor=#CDA2BE;" parent="1" vertex="1">
          <mxGeometry x="260" y="260" width="140" height="70" as="geometry" />
        </mxCell>
        <mxCell id="wB27Ykt2AubsrCw0MbNM-23" style="rounded=0;orthogonalLoop=1;jettySize=auto;html=1;dashed=1;endArrow=none;endFill=0;" edge="1" parent="1" source="wB27Ykt2AubsrCw0MbNM-37" target="wB27Ykt2AubsrCw0MbNM-14">
          <mxGeometry relative="1" as="geometry" />
        </mxCell>
        <mxCell id="v72m7F8DIpEoUBU4TtrB-7" value="Payement" style="ellipse;whiteSpace=wrap;html=1;fillColor=#CDA2BE;" parent="1" vertex="1">
          <mxGeometry x="260" y="350" width="140" height="70" as="geometry" />
        </mxCell>
        <mxCell id="wB27Ykt2AubsrCw0MbNM-24" style="rounded=0;orthogonalLoop=1;jettySize=auto;html=1;dashed=1;endArrow=none;endFill=0;" edge="1" parent="1" source="wB27Ykt2AubsrCw0MbNM-39" target="wB27Ykt2AubsrCw0MbNM-14">
          <mxGeometry relative="1" as="geometry" />
        </mxCell>
        <mxCell id="v72m7F8DIpEoUBU4TtrB-8" value="Write Reviw&amp;nbsp;" style="ellipse;whiteSpace=wrap;html=1;fillColor=#CDA2BE;" parent="1" vertex="1">
          <mxGeometry x="260" y="430" width="140" height="70" as="geometry" />
        </mxCell>
        <mxCell id="wB27Ykt2AubsrCw0MbNM-9" style="edgeStyle=none;rounded=0;orthogonalLoop=1;jettySize=auto;html=1;entryX=0;entryY=0.5;entryDx=0;entryDy=0;" edge="1" parent="1" target="wB27Ykt2AubsrCw0MbNM-6">
          <mxGeometry relative="1" as="geometry">
            <mxPoint x="60" y="180" as="sourcePoint" />
          </mxGeometry>
        </mxCell>
        <mxCell id="wB27Ykt2AubsrCw0MbNM-13" style="edgeStyle=none;rounded=0;orthogonalLoop=1;jettySize=auto;html=1;" edge="1" parent="1" target="wB27Ykt2AubsrCw0MbNM-12">
          <mxGeometry relative="1" as="geometry">
            <mxPoint x="60" y="180" as="sourcePoint" />
          </mxGeometry>
        </mxCell>
        <mxCell id="wB27Ykt2AubsrCw0MbNM-16" style="edgeStyle=none;rounded=0;orthogonalLoop=1;jettySize=auto;html=1;entryX=0;entryY=1;entryDx=0;entryDy=0;" edge="1" parent="1" target="wB27Ykt2AubsrCw0MbNM-15">
          <mxGeometry relative="1" as="geometry">
            <mxPoint x="60" y="185.20779661016957" as="sourcePoint" />
            <mxPoint x="300.39997251174145" y="10.001036982968017" as="targetPoint" />
          </mxGeometry>
        </mxCell>
        <mxCell id="v72m7F8DIpEoUBU4TtrB-24" value="" style="shape=umlActor;verticalLabelPosition=bottom;verticalAlign=top;html=1;outlineConnect=0;" parent="1" vertex="1">
          <mxGeometry x="30" y="150" width="30" height="60" as="geometry" />
        </mxCell>
        <mxCell id="v72m7F8DIpEoUBU4TtrB-32" value="ExploreMaghreb" style="text;html=1;strokeColor=none;fillColor=none;align=center;verticalAlign=middle;whiteSpace=wrap;rounded=0;" parent="1" vertex="1">
          <mxGeometry x="380" y="-110" width="100" height="30" as="geometry" />
        </mxCell>
        <mxCell id="v72m7F8DIpEoUBU4TtrB-35" value="" style="endArrow=classic;html=1;rounded=0;" parent="1" edge="1">
          <mxGeometry width="50" height="50" relative="1" as="geometry">
            <mxPoint x="60" y="180" as="sourcePoint" />
            <mxPoint x="260" y="60" as="targetPoint" />
          </mxGeometry>
        </mxCell>
        <mxCell id="v72m7F8DIpEoUBU4TtrB-36" value="" style="endArrow=classic;html=1;rounded=0;" parent="1" target="v72m7F8DIpEoUBU4TtrB-4" edge="1">
          <mxGeometry width="50" height="50" relative="1" as="geometry">
            <mxPoint x="60" y="180" as="sourcePoint" />
            <mxPoint x="110" y="130" as="targetPoint" />
          </mxGeometry>
        </mxCell>
        <mxCell id="v72m7F8DIpEoUBU4TtrB-38" value="" style="endArrow=classic;html=1;rounded=0;" parent="1" target="v72m7F8DIpEoUBU4TtrB-5" edge="1">
          <mxGeometry width="50" height="50" relative="1" as="geometry">
            <mxPoint x="60" y="180" as="sourcePoint" />
            <mxPoint x="110" y="130" as="targetPoint" />
          </mxGeometry>
        </mxCell>
        <mxCell id="v72m7F8DIpEoUBU4TtrB-39" value="" style="endArrow=classic;html=1;rounded=0;entryX=0;entryY=0.5;entryDx=0;entryDy=0;" parent="1" target="v72m7F8DIpEoUBU4TtrB-6" edge="1">
          <mxGeometry width="50" height="50" relative="1" as="geometry">
            <mxPoint x="60" y="180" as="sourcePoint" />
            <mxPoint x="110" y="130" as="targetPoint" />
          </mxGeometry>
        </mxCell>
        <mxCell id="v72m7F8DIpEoUBU4TtrB-41" value="" style="endArrow=classic;html=1;rounded=0;entryX=0.05;entryY=0.286;entryDx=0;entryDy=0;entryPerimeter=0;" parent="1" target="v72m7F8DIpEoUBU4TtrB-7" edge="1">
          <mxGeometry width="50" height="50" relative="1" as="geometry">
            <mxPoint x="60" y="180" as="sourcePoint" />
            <mxPoint x="110" y="130" as="targetPoint" />
          </mxGeometry>
        </mxCell>
        <mxCell id="wB27Ykt2AubsrCw0MbNM-6" value="Update Review" style="ellipse;whiteSpace=wrap;html=1;fillColor=#CDA2BE;" vertex="1" parent="1">
          <mxGeometry x="300" y="500" width="140" height="70" as="geometry" />
        </mxCell>
        <mxCell id="wB27Ykt2AubsrCw0MbNM-8" style="edgeStyle=none;rounded=0;orthogonalLoop=1;jettySize=auto;html=1;entryX=-0.007;entryY=0.414;entryDx=0;entryDy=0;entryPerimeter=0;" edge="1" parent="1" target="v72m7F8DIpEoUBU4TtrB-8">
          <mxGeometry relative="1" as="geometry">
            <mxPoint x="60" y="180" as="sourcePoint" />
          </mxGeometry>
        </mxCell>
        <mxCell id="wB27Ykt2AubsrCw0MbNM-12" value="Logout" style="ellipse;whiteSpace=wrap;html=1;fillColor=#CDA2BE;" vertex="1" parent="1">
          <mxGeometry x="285" y="605" width="140" height="70" as="geometry" />
        </mxCell>
        <mxCell id="wB27Ykt2AubsrCw0MbNM-14" value="&lt;div&gt;Authentification&lt;/div&gt;" style="ellipse;whiteSpace=wrap;html=1;shadow=0;fillColor=#CDA2BE;" vertex="1" parent="1">
          <mxGeometry x="630" y="60" width="140" height="70" as="geometry" />
        </mxCell>
        <mxCell id="wB27Ykt2AubsrCw0MbNM-18" style="rounded=0;orthogonalLoop=1;jettySize=auto;html=1;dashed=1;endArrow=none;endFill=0;" edge="1" parent="1" source="wB27Ykt2AubsrCw0MbNM-27" target="wB27Ykt2AubsrCw0MbNM-14">
          <mxGeometry relative="1" as="geometry" />
        </mxCell>
        <mxCell id="wB27Ykt2AubsrCw0MbNM-15" value="Register&lt;div&gt;&lt;br&gt;&lt;/div&gt;" style="ellipse;whiteSpace=wrap;html=1;shadow=0;fillColor=#CDA2BE;" vertex="1" parent="1">
          <mxGeometry x="270" y="-70" width="140" height="70" as="geometry" />
        </mxCell>
        <mxCell id="wB27Ykt2AubsrCw0MbNM-25" style="rounded=0;orthogonalLoop=1;jettySize=auto;html=1;entryX=0.336;entryY=0.986;entryDx=0;entryDy=0;entryPerimeter=0;dashed=1;endArrow=none;endFill=0;" edge="1" parent="1" source="wB27Ykt2AubsrCw0MbNM-42" target="wB27Ykt2AubsrCw0MbNM-14">
          <mxGeometry relative="1" as="geometry" />
        </mxCell>
        <mxCell id="wB27Ykt2AubsrCw0MbNM-28" value="" style="rounded=0;orthogonalLoop=1;jettySize=auto;html=1;dashed=1;endArrow=none;endFill=0;" edge="1" parent="1" source="wB27Ykt2AubsrCw0MbNM-15" target="wB27Ykt2AubsrCw0MbNM-27">
          <mxGeometry relative="1" as="geometry">
            <mxPoint x="397" y="-15" as="sourcePoint" />
            <mxPoint x="643" y="75" as="targetPoint" />
          </mxGeometry>
        </mxCell>
        <mxCell id="wB27Ykt2AubsrCw0MbNM-27" value="include" style="text;html=1;align=center;verticalAlign=middle;whiteSpace=wrap;rounded=0;" vertex="1" parent="1">
          <mxGeometry x="460" width="60" height="30" as="geometry" />
        </mxCell>
        <mxCell id="wB27Ykt2AubsrCw0MbNM-30" value="" style="rounded=0;orthogonalLoop=1;jettySize=auto;html=1;dashed=1;endArrow=none;endFill=0;" edge="1" parent="1" source="v72m7F8DIpEoUBU4TtrB-3" target="wB27Ykt2AubsrCw0MbNM-29">
          <mxGeometry relative="1" as="geometry">
            <mxPoint x="398" y="62" as="sourcePoint" />
            <mxPoint x="632" y="88" as="targetPoint" />
          </mxGeometry>
        </mxCell>
        <mxCell id="wB27Ykt2AubsrCw0MbNM-29" value="include" style="text;html=1;align=center;verticalAlign=middle;whiteSpace=wrap;rounded=0;" vertex="1" parent="1">
          <mxGeometry x="470" y="60" width="60" height="30" as="geometry" />
        </mxCell>
        <mxCell id="wB27Ykt2AubsrCw0MbNM-32" value="" style="rounded=0;orthogonalLoop=1;jettySize=auto;html=1;dashed=1;endArrow=none;endFill=0;" edge="1" parent="1" source="v72m7F8DIpEoUBU4TtrB-4" target="wB27Ykt2AubsrCw0MbNM-31">
          <mxGeometry relative="1" as="geometry">
            <mxPoint x="398" y="128" as="sourcePoint" />
            <mxPoint x="632" y="102" as="targetPoint" />
          </mxGeometry>
        </mxCell>
        <mxCell id="wB27Ykt2AubsrCw0MbNM-31" value="include" style="text;html=1;align=center;verticalAlign=middle;whiteSpace=wrap;rounded=0;" vertex="1" parent="1">
          <mxGeometry x="472.5" y="110" width="60" height="30" as="geometry" />
        </mxCell>
        <mxCell id="wB27Ykt2AubsrCw0MbNM-34" value="" style="rounded=0;orthogonalLoop=1;jettySize=auto;html=1;dashed=1;endArrow=none;endFill=0;" edge="1" parent="1" source="v72m7F8DIpEoUBU4TtrB-5" target="wB27Ykt2AubsrCw0MbNM-33">
          <mxGeometry relative="1" as="geometry">
            <mxPoint x="389" y="196" as="sourcePoint" />
            <mxPoint x="641" y="114" as="targetPoint" />
          </mxGeometry>
        </mxCell>
        <mxCell id="wB27Ykt2AubsrCw0MbNM-33" value="include" style="text;html=1;align=center;verticalAlign=middle;whiteSpace=wrap;rounded=0;" vertex="1" parent="1">
          <mxGeometry x="470" y="140" width="60" height="30" as="geometry" />
        </mxCell>
        <mxCell id="wB27Ykt2AubsrCw0MbNM-36" value="" style="rounded=0;orthogonalLoop=1;jettySize=auto;html=1;dashed=1;endArrow=none;endFill=0;" edge="1" parent="1" source="v72m7F8DIpEoUBU4TtrB-6" target="wB27Ykt2AubsrCw0MbNM-35">
          <mxGeometry relative="1" as="geometry">
            <mxPoint x="378" y="269" as="sourcePoint" />
            <mxPoint x="652" y="121" as="targetPoint" />
          </mxGeometry>
        </mxCell>
        <mxCell id="wB27Ykt2AubsrCw0MbNM-35" value="include" style="text;html=1;align=center;verticalAlign=middle;whiteSpace=wrap;rounded=0;" vertex="1" parent="1">
          <mxGeometry x="490" y="180" width="60" height="30" as="geometry" />
        </mxCell>
        <mxCell id="wB27Ykt2AubsrCw0MbNM-38" value="" style="rounded=0;orthogonalLoop=1;jettySize=auto;html=1;dashed=1;endArrow=none;endFill=0;" edge="1" parent="1" source="v72m7F8DIpEoUBU4TtrB-7" target="wB27Ykt2AubsrCw0MbNM-37">
          <mxGeometry relative="1" as="geometry">
            <mxPoint x="368" y="355" as="sourcePoint" />
            <mxPoint x="662" y="125" as="targetPoint" />
          </mxGeometry>
        </mxCell>
        <mxCell id="wB27Ykt2AubsrCw0MbNM-37" value="include" style="text;html=1;align=center;verticalAlign=middle;whiteSpace=wrap;rounded=0;" vertex="1" parent="1">
          <mxGeometry x="500" y="210" width="60" height="30" as="geometry" />
        </mxCell>
        <mxCell id="wB27Ykt2AubsrCw0MbNM-40" value="" style="rounded=0;orthogonalLoop=1;jettySize=auto;html=1;dashed=1;endArrow=none;endFill=0;" edge="1" parent="1" source="v72m7F8DIpEoUBU4TtrB-8" target="wB27Ykt2AubsrCw0MbNM-39">
          <mxGeometry relative="1" as="geometry">
            <mxPoint x="361" y="434" as="sourcePoint" />
            <mxPoint x="669" y="126" as="targetPoint" />
          </mxGeometry>
        </mxCell>
        <mxCell id="wB27Ykt2AubsrCw0MbNM-39" value="include" style="text;html=1;align=center;verticalAlign=middle;whiteSpace=wrap;rounded=0;" vertex="1" parent="1">
          <mxGeometry x="510" y="250" width="60" height="30" as="geometry" />
        </mxCell>
        <mxCell id="wB27Ykt2AubsrCw0MbNM-43" value="" style="rounded=0;orthogonalLoop=1;jettySize=auto;html=1;entryX=0.336;entryY=0.986;entryDx=0;entryDy=0;entryPerimeter=0;dashed=1;endArrow=none;endFill=0;" edge="1" parent="1" source="wB27Ykt2AubsrCw0MbNM-6" target="wB27Ykt2AubsrCw0MbNM-42">
          <mxGeometry relative="1" as="geometry">
            <mxPoint x="395" y="502" as="sourcePoint" />
            <mxPoint x="677" y="129" as="targetPoint" />
          </mxGeometry>
        </mxCell>
        <mxCell id="wB27Ykt2AubsrCw0MbNM-42" value="include" style="text;html=1;align=center;verticalAlign=middle;whiteSpace=wrap;rounded=0;" vertex="1" parent="1">
          <mxGeometry x="520" y="290" width="60" height="30" as="geometry" />
        </mxCell>
        <mxCell id="wB27Ykt2AubsrCw0MbNM-48" value="User&lt;div&gt;&lt;br&gt;&lt;/div&gt;" style="text;html=1;align=center;verticalAlign=middle;whiteSpace=wrap;rounded=0;" vertex="1" parent="1">
          <mxGeometry x="15" y="210" width="60" height="30" as="geometry" />
        </mxCell>
      </root>
    </mxGraphModel>
  </diagram>
</mxfile>
